<mxfile host="app.diagrams.net" modified="2022-08-01T01:55:04.927Z" agent="5.0 (Windows NT 10.0; Win64; x64) AppleWebKit/537.36 (KHTML, like Gecko) Chrome/103.0.0.0 Safari/537.36" etag="jEJC39ct01evBVOqSpSF" version="20.2.2" type="github">
  <diagram id="Ipst9gAuUGiXH5im7fE-" name="第 1 页">
    <mxGraphModel dx="801" dy="701" grid="1" gridSize="10" guides="1" tooltips="1" connect="1" arrows="1" fold="1" page="1" pageScale="1" pageWidth="827" pageHeight="1169" math="0" shadow="0">
      <root>
        <mxCell id="0" />
        <mxCell id="1" parent="0" />
        <mxCell id="U9dY8acCnwdA0iFTJa2--3" style="edgeStyle=orthogonalEdgeStyle;rounded=0;orthogonalLoop=1;jettySize=auto;html=1;fontFamily=Times New Roman;fontSize=24;fontColor=#3399FF;strokeColor=#3399FF;" edge="1" parent="1" source="U9dY8acCnwdA0iFTJa2--1" target="U9dY8acCnwdA0iFTJa2--2">
          <mxGeometry relative="1" as="geometry" />
        </mxCell>
        <mxCell id="U9dY8acCnwdA0iFTJa2--1" value="&lt;font style=&quot;font-size: 24px;&quot; face=&quot;Times New Roman&quot;&gt;Unit&lt;/font&gt;" style="rounded=0;whiteSpace=wrap;html=1;labelBackgroundColor=none;labelBorderColor=none;fontFamily=Helvetica;fillColor=none;strokeColor=#3399ff;strokeWidth=3;fontColor=#3399FF;" vertex="1" parent="1">
          <mxGeometry x="310" y="200" width="170" height="80" as="geometry" />
        </mxCell>
        <mxCell id="U9dY8acCnwdA0iFTJa2--2" value="&lt;font style=&quot;font-size: 24px;&quot; face=&quot;Times New Roman&quot;&gt;Unit&lt;/font&gt;" style="rounded=0;whiteSpace=wrap;html=1;labelBackgroundColor=none;labelBorderColor=none;fontFamily=Helvetica;fillColor=none;strokeColor=#3399ff;strokeWidth=3;fontColor=#3399FF;" vertex="1" parent="1">
          <mxGeometry x="310" y="360" width="170" height="80" as="geometry" />
        </mxCell>
      </root>
    </mxGraphModel>
  </diagram>
</mxfile>
